# xmcd
#
# Track frame offsets: 
#        150
#        18556
#        33602
#        46364
#        58167
#        69439
#        82327
#        97545
#        111723
#        125666
#        141423
#        152125
#        165438
#        181410
#        195777
#        212438
#
# Disc length: 2995 seconds
#
# Revision: 1
# Processed by: cddbd v1.5.2PL0 Copyright (c) Steve Scherf et al.
# Submitted via: ExactAudioCopy v0.99pb3
#
DISCID=e10bb110
DTITLE=Various Artist - Atlantic Unearthed Soul Sisters
DYEAR=2006
DGENRE=R&B
TTITLE0=Aretha Franklin - My Way
TTITLE1=Margie Joseph - It's Growing
TTITLE2=Patti LaBelle and The Blue Belles - (1-2-3-4-5-6-7) Count The Da
TTITLE2=ys
TTITLE3=Doris Troy - Please Little Angel
TTITLE4=Mary Wells - Hands Off My Baby
TTITLE5=Dee Dee Sharp - My Best Friend's Man
TTITLE6=Dee Dee Warwick - Rescue Me
TTITLE7=Baby Washington - What Becomes of The Brokenhearted
TTITLE8=Irma Thomas - Full Time Woman
TTITLE9=Judy Clay - I Got To Love Somebody's Baby
TTITLE10=Esther Phillips - Cheater Man
TTITLE11=Laura Lee - What A Man
TTITLE12=The Sweet Inspirations - Ain't Nothing Gonna Change Me
TTITLE13=Jackie Moore - It Ain't Who You Know
TTITLE14=Bettye Swann - I Ain't That Easy To Lose
TTITLE15=Barbara Lewis - Thankful For What I Got
EXTD=
EXTT0=
EXTT1=
EXTT2=
EXTT3=
EXTT4=
EXTT5=
EXTT6=
EXTT7=
EXTT8=
EXTT9=
EXTT10=
EXTT11=
EXTT12=
EXTT13=
EXTT14=
EXTT15=
PLAYORDER=
